<svg width="537" height="381" viewBox="0 0 537 381" fill="none" xmlns="http://www.w3.org/2000/svg">
<path d="M91.3534 191.854C91.5487 191.658 91.5487 191.342 91.3534 191.146L88.1715 187.964C87.9762 187.769 87.6596 187.769 87.4643 187.964C87.2691 188.16 87.2691 188.476 87.4643 188.672L90.2928 191.5L87.4643 194.328C87.2691 194.524 87.2691 194.84 87.4643 195.036C87.6596 195.231 87.9762 195.231 88.1715 195.036L91.3534 191.854ZM53.9999 192H90.9999V191H53.9999V192Z" fill="black"/>
<line x1="54.4999" y1="135" x2="54.4999" y2="192" stroke="black"/>
<path d="M369.646 117.646C369.451 117.842 369.451 118.158 369.646 118.354L372.828 121.536C373.024 121.731 373.34 121.731 373.535 121.536C373.731 121.34 373.731 121.024 373.535 120.828L370.707 118L373.535 115.172C373.731 114.976 373.731 114.66 373.535 114.464C373.34 114.269 373.024 114.269 372.828 114.464L369.646 117.646ZM407 117.5H370V118.5H407V117.5Z" fill="black"/>
<line x1="406.5" y1="118" x2="406.536" y2="60.9997" stroke="black"/>
<path d="M284.353 305.646C284.158 305.451 283.842 305.451 283.646 305.646L280.464 308.828C280.269 309.024 280.269 309.34 280.464 309.536C280.66 309.731 280.976 309.731 281.171 309.536L284 306.707L286.828 309.536C287.024 309.731 287.34 309.731 287.535 309.536C287.731 309.34 287.731 309.024 287.535 308.828L284.353 305.646ZM284.5 343V306H283.5V343H284.5Z" fill="black"/>
<line x1="284" y1="342.5" x2="341" y2="342.5" stroke="black"/>
<path d="M303.113 244.343C289.907 254.276 274.485 260.852 258.174 263.505C241.864 266.158 225.153 264.809 209.479 259.572C193.806 254.336 179.639 245.37 168.198 233.446C156.757 221.522 148.385 206.997 143.802 191.12L171.351 183.167C174.646 194.58 180.665 205.022 188.889 213.594C197.114 222.166 207.298 228.611 218.565 232.375C229.832 236.139 241.846 237.11 253.571 235.203C265.296 233.295 276.383 228.568 285.876 221.427L303.113 244.343Z" fill="#9EB6CF"/>
<path d="M140.369 173.973C138.669 157.966 140.782 141.785 146.534 126.751C152.286 111.717 161.515 98.2583 173.465 87.4745C185.416 76.6908 199.749 68.8885 215.292 64.7056C230.836 60.5226 247.149 60.0778 262.898 63.4074L256.966 91.4619C245.645 89.0683 233.918 89.3881 222.744 92.3951C211.57 95.4022 201.266 101.011 192.675 108.763C184.085 116.515 177.45 126.191 173.315 136.998C169.18 147.805 167.661 159.438 168.883 170.945L140.369 173.973Z" fill="#2D6AA8"/>
<path d="M278.2 67.8354C294.037 73.7877 308.145 83.5861 319.253 96.3479C330.36 109.11 338.119 124.434 341.83 140.941C345.541 157.448 345.088 174.619 340.511 190.907C335.935 207.195 327.378 222.088 315.612 234.246L295.007 214.306C303.465 205.565 309.616 194.859 312.906 183.15C316.196 171.441 316.522 159.097 313.854 147.231C311.186 135.364 305.608 124.348 297.623 115.174C289.638 106 279.497 98.9558 268.112 94.6768L278.2 67.8354Z" fill="#1E4975"/>
<path d="M407.99 11V2.46875H410.398C411.141 2.46875 411.797 2.63281 412.367 2.96094C412.938 3.28906 413.377 3.75586 413.686 4.36133C413.998 4.9668 414.156 5.66211 414.16 6.44727V6.99219C414.16 7.79688 414.004 8.50195 413.691 9.10742C413.383 9.71289 412.939 10.1777 412.361 10.502C411.787 10.8262 411.117 10.9922 410.352 11H407.99ZM409.115 3.39453V10.0801H410.299C411.166 10.0801 411.84 9.81055 412.32 9.27148C412.805 8.73242 413.047 7.96484 413.047 6.96875V6.4707C413.047 5.50195 412.818 4.75 412.361 4.21484C411.908 3.67578 411.264 3.40234 410.428 3.39453H409.115ZM420.688 7.05664H416.99V10.0801H421.285V11H415.865V2.46875H421.227V3.39453H416.99V6.13672H420.688V7.05664ZM428.961 8.29297C428.855 9.19531 428.521 9.89258 427.959 10.3848C427.4 10.873 426.656 11.1172 425.727 11.1172C424.719 11.1172 423.91 10.7559 423.301 10.0332C422.695 9.31055 422.393 8.34375 422.393 7.13281V6.3125C422.393 5.51953 422.533 4.82227 422.814 4.2207C423.1 3.61914 423.502 3.1582 424.021 2.83789C424.541 2.51367 425.143 2.35156 425.826 2.35156C426.732 2.35156 427.459 2.60547 428.006 3.11328C428.553 3.61719 428.871 4.31641 428.961 5.21094H427.83C427.732 4.53125 427.52 4.03906 427.191 3.73438C426.867 3.42969 426.412 3.27734 425.826 3.27734C425.107 3.27734 424.543 3.54297 424.133 4.07422C423.727 4.60547 423.523 5.36133 423.523 6.3418V7.16797C423.523 8.09375 423.717 8.83008 424.104 9.37695C424.49 9.92383 425.031 10.1973 425.727 10.1973C426.352 10.1973 426.83 10.0566 427.162 9.77539C427.498 9.49023 427.721 8.99609 427.83 8.29297H428.961ZM431.709 11H430.584V2.46875H431.709V11ZM436.285 7.19727C435.32 6.91992 434.617 6.58008 434.176 6.17773C433.738 5.77148 433.52 5.27148 433.52 4.67773C433.52 4.00586 433.787 3.45117 434.322 3.01367C434.861 2.57227 435.561 2.35156 436.42 2.35156C437.006 2.35156 437.527 2.46484 437.984 2.69141C438.445 2.91797 438.801 3.23047 439.051 3.62891C439.305 4.02734 439.432 4.46289 439.432 4.93555H438.301C438.301 4.41992 438.137 4.01562 437.809 3.72266C437.48 3.42578 437.018 3.27734 436.42 3.27734C435.865 3.27734 435.432 3.40039 435.119 3.64648C434.811 3.88867 434.656 4.22656 434.656 4.66016C434.656 5.00781 434.803 5.30273 435.096 5.54492C435.393 5.7832 435.895 6.00195 436.602 6.20117C437.312 6.40039 437.867 6.62109 438.266 6.86328C438.668 7.10156 438.965 7.38086 439.156 7.70117C439.352 8.02148 439.449 8.39844 439.449 8.83203C439.449 9.52344 439.18 10.0781 438.641 10.4961C438.102 10.9102 437.381 11.1172 436.479 11.1172C435.893 11.1172 435.346 11.0059 434.838 10.7832C434.33 10.5566 433.938 10.248 433.66 9.85742C433.387 9.4668 433.25 9.02344 433.25 8.52734H434.381C434.381 9.04297 434.57 9.45117 434.949 9.75195C435.332 10.0488 435.842 10.1973 436.479 10.1973C437.072 10.1973 437.527 10.0762 437.844 9.83398C438.16 9.5918 438.318 9.26172 438.318 8.84375C438.318 8.42578 438.172 8.10352 437.879 7.87695C437.586 7.64648 437.055 7.41992 436.285 7.19727ZM442.104 11H440.979V2.46875H442.104V11ZM450.729 7.00977C450.729 7.8457 450.588 8.57617 450.307 9.20117C450.025 9.82227 449.627 10.2969 449.111 10.625C448.596 10.9531 447.994 11.1172 447.307 11.1172C446.635 11.1172 446.039 10.9531 445.52 10.625C445 10.293 444.596 9.82227 444.307 9.21289C444.021 8.59961 443.875 7.89062 443.867 7.08594V6.4707C443.867 5.65039 444.01 4.92578 444.295 4.29688C444.58 3.66797 444.982 3.1875 445.502 2.85547C446.025 2.51953 446.623 2.35156 447.295 2.35156C447.979 2.35156 448.58 2.51758 449.1 2.84961C449.623 3.17773 450.025 3.65625 450.307 4.28516C450.588 4.91016 450.729 5.63867 450.729 6.4707V7.00977ZM449.609 6.45898C449.609 5.44727 449.406 4.67188 449 4.13281C448.594 3.58984 448.025 3.31836 447.295 3.31836C446.584 3.31836 446.023 3.58984 445.613 4.13281C445.207 4.67188 444.998 5.42188 444.986 6.38281V7.00977C444.986 7.99023 445.191 8.76172 445.602 9.32422C446.016 9.88281 446.584 10.1621 447.307 10.1621C448.033 10.1621 448.596 9.89844 448.994 9.37109C449.393 8.83984 449.598 8.08008 449.609 7.0918V6.45898ZM458.973 11H457.842L453.547 4.42578V11H452.416V2.46875H453.547L457.854 9.07227V2.46875H458.973V11ZM409.443 16.4688L412.232 23.4297L415.021 16.4688H416.48V25H415.355V21.6777L415.461 18.0918L412.66 25H411.799L409.004 18.1094L409.115 21.6777V25H407.99V16.4688H409.443ZM423.283 22.7734H419.709L418.906 25H417.746L421.004 16.4688H421.988L425.252 25H424.098L423.283 22.7734ZM420.049 21.8477H422.949L421.496 17.8574L420.049 21.8477ZM428.568 21.0332L427.525 22.1172V25H426.4V16.4688H427.525V20.6875L431.316 16.4688H432.676L429.318 20.2363L432.939 25H431.592L428.568 21.0332ZM435.131 25H434.006V16.4688H435.131V25ZM443.75 25H442.619L438.324 18.4258V25H437.193V16.4688H438.324L442.631 23.0723V16.4688H443.75V25ZM452.047 23.8809C451.758 24.2949 451.354 24.6055 450.834 24.8125C450.318 25.0156 449.717 25.1172 449.029 25.1172C448.334 25.1172 447.717 24.9551 447.178 24.6309C446.639 24.3027 446.221 23.8379 445.924 23.2363C445.631 22.6348 445.48 21.9375 445.473 21.1445V20.4004C445.473 19.1152 445.771 18.1191 446.369 17.4121C446.971 16.7051 447.814 16.3516 448.9 16.3516C449.791 16.3516 450.508 16.5801 451.051 17.0371C451.594 17.4902 451.926 18.1348 452.047 18.9707H450.922C450.711 17.8418 450.039 17.2773 448.906 17.2773C448.152 17.2773 447.58 17.543 447.189 18.0742C446.803 18.6016 446.607 19.3672 446.604 20.3711V21.0684C446.604 22.0254 446.822 22.7871 447.26 23.3535C447.697 23.916 448.289 24.1973 449.035 24.1973C449.457 24.1973 449.826 24.1504 450.143 24.0566C450.459 23.9629 450.721 23.8047 450.928 23.582V21.666H448.953V20.752H452.047V23.8809ZM458.111 25H456.986V16.4688H458.111V25ZM466.73 25H465.6L461.305 18.4258V25H460.174V16.4688H461.305L465.611 23.0723V16.4688H466.73V25ZM409.197 39H408.072V30.4688H409.197V39ZM417.816 39H416.686L412.391 32.4258V39H411.26V30.4688H412.391L416.697 37.0723V30.4688H417.816V39ZM425.533 31.3945H422.791V39H421.672V31.3945H418.936V30.4688H425.533V31.3945ZM431.621 35.0566H427.924V38.0801H432.219V39H426.799V30.4688H432.16V31.3945H427.924V34.1367H431.621V35.0566ZM436.748 35.5488H434.744V39H433.613V30.4688H436.438C437.398 30.4688 438.137 30.6875 438.652 31.125C439.172 31.5625 439.432 32.1992 439.432 33.0352C439.432 33.5664 439.287 34.0293 438.998 34.4238C438.713 34.8184 438.314 35.1133 437.803 35.3086L439.807 38.9297V39H438.6L436.748 35.5488ZM434.744 34.6289H436.473C437.031 34.6289 437.475 34.4844 437.803 34.1953C438.135 33.9062 438.301 33.5195 438.301 33.0352C438.301 32.5078 438.143 32.1035 437.826 31.8223C437.514 31.541 437.061 31.3984 436.467 31.3945H434.744V34.6289ZM445.719 35.2324H442.139V39H441.014V30.4688H446.299V31.3945H442.139V34.3125H445.719V35.2324ZM451.361 36.7734H447.787L446.984 39H445.824L449.082 30.4688H450.066L453.33 39H452.176L451.361 36.7734ZM448.127 35.8477H451.027L449.574 31.8574L448.127 35.8477ZM460.684 36.293C460.578 37.1953 460.244 37.8926 459.682 38.3848C459.123 38.873 458.379 39.1172 457.449 39.1172C456.441 39.1172 455.633 38.7559 455.023 38.0332C454.418 37.3105 454.115 36.3438 454.115 35.1328V34.3125C454.115 33.5195 454.256 32.8223 454.537 32.2207C454.822 31.6191 455.225 31.1582 455.744 30.8379C456.264 30.5137 456.865 30.3516 457.549 30.3516C458.455 30.3516 459.182 30.6055 459.729 31.1133C460.275 31.6172 460.594 32.3164 460.684 33.2109H459.553C459.455 32.5312 459.242 32.0391 458.914 31.7344C458.59 31.4297 458.135 31.2773 457.549 31.2773C456.83 31.2773 456.266 31.543 455.855 32.0742C455.449 32.6055 455.246 33.3613 455.246 34.3418V35.168C455.246 36.0938 455.439 36.8301 455.826 37.377C456.213 37.9238 456.754 38.1973 457.449 38.1973C458.074 38.1973 458.553 38.0566 458.885 37.7754C459.221 37.4902 459.443 36.9961 459.553 36.293H460.684ZM467.047 35.0566H463.35V38.0801H467.645V39H462.225V30.4688H467.586V31.3945H463.35V34.1367H467.047V35.0566Z" fill="black"/>
<path d="M7.26562 85.293C7.16016 86.1953 6.82617 86.8926 6.26367 87.3848C5.70508 87.873 4.96094 88.1172 4.03125 88.1172C3.02344 88.1172 2.21484 87.7559 1.60547 87.0332C1 86.3105 0.697266 85.3438 0.697266 84.1328V83.3125C0.697266 82.5195 0.837891 81.8223 1.11914 81.2207C1.4043 80.6191 1.80664 80.1582 2.32617 79.8379C2.8457 79.5137 3.44727 79.3516 4.13086 79.3516C5.03711 79.3516 5.76367 79.6055 6.31055 80.1133C6.85742 80.6172 7.17578 81.3164 7.26562 82.2109H6.13477C6.03711 81.5312 5.82422 81.0391 5.49609 80.7344C5.17188 80.4297 4.7168 80.2773 4.13086 80.2773C3.41211 80.2773 2.84766 80.543 2.4375 81.0742C2.03125 81.6055 1.82812 82.3613 1.82812 83.3418V84.168C1.82812 85.0938 2.02148 85.8301 2.4082 86.377C2.79492 86.9238 3.33594 87.1973 4.03125 87.1973C4.65625 87.1973 5.13477 87.0566 5.4668 86.7754C5.80273 86.4902 6.02539 85.9961 6.13477 85.293H7.26562ZM15.3691 84.0098C15.3691 84.8457 15.2285 85.5762 14.9473 86.2012C14.666 86.8223 14.2676 87.2969 13.752 87.625C13.2363 87.9531 12.6348 88.1172 11.9473 88.1172C11.2754 88.1172 10.6797 87.9531 10.1602 87.625C9.64062 87.293 9.23633 86.8223 8.94727 86.2129C8.66211 85.5996 8.51562 84.8906 8.50781 84.0859V83.4707C8.50781 82.6504 8.65039 81.9258 8.93555 81.2969C9.2207 80.668 9.62305 80.1875 10.1426 79.8555C10.666 79.5195 11.2637 79.3516 11.9355 79.3516C12.6191 79.3516 13.2207 79.5176 13.7402 79.8496C14.2637 80.1777 14.666 80.6562 14.9473 81.2852C15.2285 81.9102 15.3691 82.6387 15.3691 83.4707V84.0098ZM14.25 83.459C14.25 82.4473 14.0469 81.6719 13.6406 81.1328C13.2344 80.5898 12.666 80.3184 11.9355 80.3184C11.2246 80.3184 10.6641 80.5898 10.2539 81.1328C9.84766 81.6719 9.63867 82.4219 9.62695 83.3828V84.0098C9.62695 84.9902 9.83203 85.7617 10.2422 86.3242C10.6562 86.8828 11.2246 87.1621 11.9473 87.1621C12.6738 87.1621 13.2363 86.8984 13.6348 86.3711C14.0332 85.8398 14.2383 85.0801 14.25 84.0918V83.459ZM20.1855 84.5488H18.1816V88H17.0508V79.4688H19.875C20.8359 79.4688 21.5742 79.6875 22.0898 80.125C22.6094 80.5625 22.8691 81.1992 22.8691 82.0352C22.8691 82.5664 22.7246 83.0293 22.4355 83.4238C22.1504 83.8184 21.752 84.1133 21.2402 84.3086L23.2441 87.9297V88H22.0371L20.1855 84.5488ZM18.1816 83.6289H19.9102C20.4688 83.6289 20.9121 83.4844 21.2402 83.1953C21.5723 82.9062 21.7383 82.5195 21.7383 82.0352C21.7383 81.5078 21.5801 81.1035 21.2637 80.8223C20.9512 80.541 20.498 80.3984 19.9043 80.3945H18.1816V83.6289ZM25.5762 84.6602V88H24.4512V79.4688H27.5977C28.5312 79.4688 29.2617 79.707 29.7891 80.1836C30.3203 80.6602 30.5859 81.291 30.5859 82.0762C30.5859 82.9043 30.3262 83.543 29.8066 83.9922C29.291 84.4375 28.5508 84.6602 27.5859 84.6602H25.5762ZM25.5762 83.7402H27.5977C28.1992 83.7402 28.6602 83.5996 28.9805 83.3184C29.3008 83.0332 29.4609 82.623 29.4609 82.0879C29.4609 81.5801 29.3008 81.1738 28.9805 80.8691C28.6602 80.5645 28.2207 80.4062 27.6621 80.3945H25.5762V83.7402ZM38.584 84.0098C38.584 84.8457 38.4434 85.5762 38.1621 86.2012C37.8809 86.8223 37.4824 87.2969 36.9668 87.625C36.4512 87.9531 35.8496 88.1172 35.1621 88.1172C34.4902 88.1172 33.8945 87.9531 33.375 87.625C32.8555 87.293 32.4512 86.8223 32.1621 86.2129C31.877 85.5996 31.7305 84.8906 31.7227 84.0859V83.4707C31.7227 82.6504 31.8652 81.9258 32.1504 81.2969C32.4355 80.668 32.8379 80.1875 33.3574 79.8555C33.8809 79.5195 34.4785 79.3516 35.1504 79.3516C35.834 79.3516 36.4355 79.5176 36.9551 79.8496C37.4785 80.1777 37.8809 80.6562 38.1621 81.2852C38.4434 81.9102 38.584 82.6387 38.584 83.4707V84.0098ZM37.4648 83.459C37.4648 82.4473 37.2617 81.6719 36.8555 81.1328C36.4492 80.5898 35.8809 80.3184 35.1504 80.3184C34.4395 80.3184 33.8789 80.5898 33.4688 81.1328C33.0625 81.6719 32.8535 82.4219 32.8418 83.3828V84.0098C32.8418 84.9902 33.0469 85.7617 33.457 86.3242C33.8711 86.8828 34.4395 87.1621 35.1621 87.1621C35.8887 87.1621 36.4512 86.8984 36.8496 86.3711C37.248 85.8398 37.4531 85.0801 37.4648 84.0918V83.459ZM43.4004 84.5488H41.3965V88H40.2656V79.4688H43.0898C44.0508 79.4688 44.7891 79.6875 45.3047 80.125C45.8242 80.5625 46.084 81.1992 46.084 82.0352C46.084 82.5664 45.9395 83.0293 45.6504 83.4238C45.3652 83.8184 44.9668 84.1133 44.4551 84.3086L46.459 87.9297V88H45.252L43.4004 84.5488ZM41.3965 83.6289H43.125C43.6836 83.6289 44.127 83.4844 44.4551 83.1953C44.7871 82.9062 44.9531 82.5195 44.9531 82.0352C44.9531 81.5078 44.7949 81.1035 44.4785 80.8223C44.166 80.541 43.7129 80.3984 43.1191 80.3945H41.3965V83.6289ZM52.377 85.7734H48.8027L48 88H46.8398L50.0977 79.4688H51.082L54.3457 88H53.1914L52.377 85.7734ZM49.1426 84.8477H52.043L50.5898 80.8574L49.1426 84.8477ZM60.627 80.3945H57.8848V88H56.7656V80.3945H54.0293V79.4688H60.627V80.3945ZM66.7148 84.0566H63.0176V87.0801H67.3125V88H61.8926V79.4688H67.2539V80.3945H63.0176V83.1367H66.7148V84.0566ZM3.81445 100.506L6.25195 93.4688H7.48242L4.31836 102H3.32227L0.164062 93.4688H1.38867L3.81445 100.506ZM12.8965 99.7734H9.32227L8.51953 102H7.35938L10.6172 93.4688H11.6016L14.8652 102H13.7109L12.8965 99.7734ZM9.66211 98.8477H12.5625L11.1094 94.8574L9.66211 98.8477ZM17.1445 101.08H21.1875V102H16.0137V93.4688H17.1445V101.08ZM28.1602 93.4688V99.2695C28.1562 100.074 27.9023 100.732 27.3984 101.244C26.8984 101.756 26.2188 102.043 25.3594 102.105L25.0605 102.117C24.127 102.117 23.3828 101.865 22.8281 101.361C22.2734 100.857 21.9922 100.164 21.9844 99.2812V93.4688H23.0977V99.2461C23.0977 99.8633 23.2676 100.344 23.6074 100.688C23.9473 101.027 24.4316 101.197 25.0605 101.197C25.6973 101.197 26.1836 101.027 26.5195 100.688C26.8594 100.348 27.0293 99.8691 27.0293 99.252V93.4688H28.1602ZM34.5176 99.7734H30.9434L30.1406 102H28.9805L32.2383 93.4688H33.2227L36.4863 102H35.332L34.5176 99.7734ZM31.2832 98.8477H34.1836L32.7305 94.8574L31.2832 98.8477ZM42.7676 94.3945H40.0254V102H38.9062V94.3945H36.1699V93.4688H42.7676V94.3945ZM45.2402 102H44.1152V93.4688H45.2402V102ZM53.8652 98.0098C53.8652 98.8457 53.7246 99.5762 53.4434 100.201C53.1621 100.822 52.7637 101.297 52.248 101.625C51.7324 101.953 51.1309 102.117 50.4434 102.117C49.7715 102.117 49.1758 101.953 48.6562 101.625C48.1367 101.293 47.7324 100.822 47.4434 100.213C47.1582 99.5996 47.0117 98.8906 47.0039 98.0859V97.4707C47.0039 96.6504 47.1465 95.9258 47.4316 95.2969C47.7168 94.668 48.1191 94.1875 48.6387 93.8555C49.1621 93.5195 49.7598 93.3516 50.4316 93.3516C51.1152 93.3516 51.7168 93.5176 52.2363 93.8496C52.7598 94.1777 53.1621 94.6562 53.4434 95.2852C53.7246 95.9102 53.8652 96.6387 53.8652 97.4707V98.0098ZM52.7461 97.459C52.7461 96.4473 52.543 95.6719 52.1367 95.1328C51.7305 94.5898 51.1621 94.3184 50.4316 94.3184C49.7207 94.3184 49.1602 94.5898 48.75 95.1328C48.3438 95.6719 48.1348 96.4219 48.123 97.3828V98.0098C48.123 98.9902 48.3281 99.7617 48.7383 100.324C49.1523 100.883 49.7207 101.162 50.4434 101.162C51.1699 101.162 51.7324 100.898 52.1309 100.371C52.5293 99.8398 52.7344 99.0801 52.7461 98.0918V97.459ZM62.1094 102H60.9785L56.6836 95.4258V102H55.5527V93.4688H56.6836L60.9902 100.072V93.4688H62.1094V102ZM66.6211 98.1973C65.6562 97.9199 64.9531 97.5801 64.5117 97.1777C64.0742 96.7715 63.8555 96.2715 63.8555 95.6777C63.8555 95.0059 64.123 94.4512 64.6582 94.0137C65.1973 93.5723 65.8965 93.3516 66.7559 93.3516C67.3418 93.3516 67.8633 93.4648 68.3203 93.6914C68.7812 93.918 69.1367 94.2305 69.3867 94.6289C69.6406 95.0273 69.7676 95.4629 69.7676 95.9355H68.6367C68.6367 95.4199 68.4727 95.0156 68.1445 94.7227C67.8164 94.4258 67.3535 94.2773 66.7559 94.2773C66.2012 94.2773 65.7676 94.4004 65.4551 94.6465C65.1465 94.8887 64.9922 95.2266 64.9922 95.6602C64.9922 96.0078 65.1387 96.3027 65.4316 96.5449C65.7285 96.7832 66.2305 97.002 66.9375 97.2012C67.6484 97.4004 68.2031 97.6211 68.6016 97.8633C69.0039 98.1016 69.3008 98.3809 69.4922 98.7012C69.6875 99.0215 69.7852 99.3984 69.7852 99.832C69.7852 100.523 69.5156 101.078 68.9766 101.496C68.4375 101.91 67.7168 102.117 66.8145 102.117C66.2285 102.117 65.6816 102.006 65.1738 101.783C64.666 101.557 64.2734 101.248 63.9961 100.857C63.7227 100.467 63.5859 100.023 63.5859 99.5273H64.7168C64.7168 100.043 64.9062 100.451 65.2852 100.752C65.668 101.049 66.1777 101.197 66.8145 101.197C67.4082 101.197 67.8633 101.076 68.1797 100.834C68.4961 100.592 68.6543 100.262 68.6543 99.8438C68.6543 99.4258 68.5078 99.1035 68.2148 98.877C67.9219 98.6465 67.3906 98.4199 66.6211 98.1973ZM73.8105 99.709C73.8105 99.2988 73.9238 98.9219 74.1504 98.5781C74.3809 98.2344 74.8184 97.834 75.4629 97.377C75.084 96.916 74.8301 96.5449 74.7012 96.2637C74.5723 95.9824 74.5078 95.7031 74.5078 95.4258C74.5078 94.7773 74.6992 94.2695 75.082 93.9023C75.4648 93.5352 75.9844 93.3516 76.6406 93.3516C77.2266 93.3516 77.7109 93.5234 78.0938 93.8672C78.4766 94.207 78.668 94.6367 78.668 95.1562C78.668 95.5 78.5801 95.8184 78.4043 96.1113C78.2324 96.4004 77.9297 96.7051 77.4961 97.0254L76.8691 97.4883L78.7676 99.7559C79.0332 99.248 79.166 98.6836 79.166 98.0625H80.1445C80.1445 99.0586 79.9043 99.8848 79.4238 100.541L80.6426 102H79.3418L78.7734 101.326C78.4844 101.584 78.1445 101.781 77.7539 101.918C77.3672 102.051 76.9727 102.117 76.5703 102.117C75.7383 102.117 75.0703 101.896 74.5664 101.455C74.0625 101.014 73.8105 100.432 73.8105 99.709ZM76.5703 101.232C77.1445 101.232 77.6699 101.014 78.1465 100.576L76.0664 98.0859L75.873 98.2266C75.2207 98.707 74.8945 99.2012 74.8945 99.709C74.8945 100.17 75.043 100.539 75.3398 100.816C75.6406 101.094 76.0508 101.232 76.5703 101.232ZM75.5918 95.3906C75.5918 95.7656 75.8223 96.2344 76.2832 96.7969L76.9746 96.3105C77.2402 96.123 77.4219 95.9453 77.5195 95.7773C77.6172 95.6055 77.666 95.3984 77.666 95.1562C77.666 94.8945 77.5684 94.6777 77.373 94.5059C77.1777 94.3301 76.9316 94.2422 76.6348 94.2422C76.3145 94.2422 76.0605 94.3516 75.873 94.5703C75.6855 94.7852 75.5918 95.0586 75.5918 95.3906ZM5.69531 112.232H2.11523V116H0.990234V107.469H6.27539V108.395H2.11523V111.312H5.69531V112.232ZM8.83008 116H7.70508V107.469H8.83008V116ZM17.4492 116H16.3184L12.0234 109.426V116H10.8926V107.469H12.0234L16.3301 114.072V107.469H17.4492V116ZM24.2637 113.773H20.6895L19.8867 116H18.7266L21.9844 107.469H22.9688L26.2324 116H25.0781L24.2637 113.773ZM21.0293 112.848H23.9297L22.4766 108.857L21.0293 112.848ZM33.9375 116H32.8066L28.5117 109.426V116H27.3809V107.469H28.5117L32.8184 114.072V107.469H33.9375V116ZM42.2109 113.293C42.1055 114.195 41.7715 114.893 41.209 115.385C40.6504 115.873 39.9062 116.117 38.9766 116.117C37.9688 116.117 37.1602 115.756 36.5508 115.033C35.9453 114.311 35.6426 113.344 35.6426 112.133V111.312C35.6426 110.52 35.7832 109.822 36.0645 109.221C36.3496 108.619 36.752 108.158 37.2715 107.838C37.791 107.514 38.3926 107.352 39.0762 107.352C39.9824 107.352 40.709 107.605 41.2559 108.113C41.8027 108.617 42.1211 109.316 42.2109 110.211H41.0801C40.9824 109.531 40.7695 109.039 40.4414 108.734C40.1172 108.43 39.6621 108.277 39.0762 108.277C38.3574 108.277 37.793 108.543 37.3828 109.074C36.9766 109.605 36.7734 110.361 36.7734 111.342V112.168C36.7734 113.094 36.9668 113.83 37.3535 114.377C37.7402 114.924 38.2812 115.197 38.9766 115.197C39.6016 115.197 40.0801 115.057 40.4121 114.775C40.748 114.49 40.9707 113.996 41.0801 113.293H42.2109ZM44.959 116H43.834V107.469H44.959V116ZM51.8379 113.773H48.2637L47.4609 116H46.3008L49.5586 107.469H50.543L53.8066 116H52.6523L51.8379 113.773ZM48.6035 112.848H51.5039L50.0508 108.857L48.6035 112.848ZM56.0859 115.08H60.1289V116H54.9551V107.469H56.0859V115.08ZM2.44336 121.469L5.23242 128.43L8.02148 121.469H9.48047V130H8.35547V126.678L8.46094 123.092L5.66016 130H4.79883L2.00391 123.109L2.11523 126.678V130H0.990234V121.469H2.44336ZM18.0293 126.01C18.0293 126.846 17.8887 127.576 17.6074 128.201C17.3262 128.822 16.9277 129.297 16.4121 129.625C15.8965 129.953 15.2949 130.117 14.6074 130.117C13.9355 130.117 13.3398 129.953 12.8203 129.625C12.3008 129.293 11.8965 128.822 11.6074 128.213C11.3223 127.6 11.1758 126.891 11.168 126.086V125.471C11.168 124.65 11.3105 123.926 11.5957 123.297C11.8809 122.668 12.2832 122.188 12.8027 121.855C13.3262 121.52 13.9238 121.352 14.5957 121.352C15.2793 121.352 15.8809 121.518 16.4004 121.85C16.9238 122.178 17.3262 122.656 17.6074 123.285C17.8887 123.91 18.0293 124.639 18.0293 125.471V126.01ZM16.9102 125.459C16.9102 124.447 16.707 123.672 16.3008 123.133C15.8945 122.59 15.3262 122.318 14.5957 122.318C13.8848 122.318 13.3242 122.59 12.9141 123.133C12.5078 123.672 12.2988 124.422 12.2871 125.383V126.01C12.2871 126.99 12.4922 127.762 12.9023 128.324C13.3164 128.883 13.8848 129.162 14.6074 129.162C15.334 129.162 15.8965 128.898 16.2949 128.371C16.6934 127.84 16.8984 127.08 16.9102 126.092V125.459ZM19.7168 130V121.469H22.125C22.8672 121.469 23.5234 121.633 24.0938 121.961C24.6641 122.289 25.1035 122.756 25.4121 123.361C25.7246 123.967 25.8828 124.662 25.8867 125.447V125.992C25.8867 126.797 25.7305 127.502 25.418 128.107C25.1094 128.713 24.666 129.178 24.0879 129.502C23.5137 129.826 22.8438 129.992 22.0781 130H19.7168ZM20.8418 122.395V129.08H22.0254C22.8926 129.08 23.5664 128.811 24.0469 128.271C24.5312 127.732 24.7734 126.965 24.7734 125.969V125.471C24.7734 124.502 24.5449 123.75 24.0879 123.215C23.6348 122.676 22.9902 122.402 22.1543 122.395H20.8418ZM32.4141 126.057H28.7168V129.08H33.0117V130H27.5918V121.469H32.9531V122.395H28.7168V125.137H32.4141V126.057ZM35.543 129.08H39.5859V130H34.4121V121.469H35.543V129.08ZM42.0762 130H40.9512V121.469H42.0762V130ZM50.6953 130H49.5645L45.2695 123.426V130H44.1387V121.469H45.2695L49.5762 128.072V121.469H50.6953V130ZM58.9922 128.881C58.7031 129.295 58.2988 129.605 57.7793 129.812C57.2637 130.016 56.6621 130.117 55.9746 130.117C55.2793 130.117 54.6621 129.955 54.123 129.631C53.584 129.303 53.166 128.838 52.8691 128.236C52.5762 127.635 52.4258 126.938 52.418 126.145V125.4C52.418 124.115 52.7168 123.119 53.3145 122.412C53.916 121.705 54.7598 121.352 55.8457 121.352C56.7363 121.352 57.4531 121.58 57.9961 122.037C58.5391 122.49 58.8711 123.135 58.9922 123.971H57.8672C57.6562 122.842 56.9844 122.277 55.8516 122.277C55.0977 122.277 54.5254 122.543 54.1348 123.074C53.748 123.602 53.5527 124.367 53.5488 125.371V126.068C53.5488 127.025 53.7676 127.787 54.2051 128.354C54.6426 128.916 55.2344 129.197 55.9805 129.197C56.4023 129.197 56.7715 129.15 57.0879 129.057C57.4043 128.963 57.666 128.805 57.873 128.582V126.666H55.8984V125.752H58.9922V128.881Z" fill="black"/>
<path d="M379.504 346.197C378.539 345.92 377.836 345.58 377.395 345.178C376.957 344.771 376.738 344.271 376.738 343.678C376.738 343.006 377.006 342.451 377.541 342.014C378.08 341.572 378.779 341.352 379.639 341.352C380.225 341.352 380.746 341.465 381.203 341.691C381.664 341.918 382.02 342.23 382.27 342.629C382.523 343.027 382.65 343.463 382.65 343.936H381.52C381.52 343.42 381.355 343.016 381.027 342.723C380.699 342.426 380.236 342.277 379.639 342.277C379.084 342.277 378.65 342.4 378.338 342.646C378.029 342.889 377.875 343.227 377.875 343.66C377.875 344.008 378.021 344.303 378.314 344.545C378.611 344.783 379.113 345.002 379.82 345.201C380.531 345.4 381.086 345.621 381.484 345.863C381.887 346.102 382.184 346.381 382.375 346.701C382.57 347.021 382.668 347.398 382.668 347.832C382.668 348.523 382.398 349.078 381.859 349.496C381.32 349.91 380.6 350.117 379.697 350.117C379.111 350.117 378.564 350.006 378.057 349.783C377.549 349.557 377.156 349.248 376.879 348.857C376.605 348.467 376.469 348.023 376.469 347.527H377.6C377.6 348.043 377.789 348.451 378.168 348.752C378.551 349.049 379.061 349.197 379.697 349.197C380.291 349.197 380.746 349.076 381.062 348.834C381.379 348.592 381.537 348.262 381.537 347.844C381.537 347.426 381.391 347.104 381.098 346.877C380.805 346.646 380.273 346.42 379.504 346.197ZM386.717 345.752L388.943 341.469H390.221L387.279 346.818V350H386.154V346.818L383.213 341.469H384.502L386.717 345.752ZM393.742 346.197C392.777 345.92 392.074 345.58 391.633 345.178C391.195 344.771 390.977 344.271 390.977 343.678C390.977 343.006 391.244 342.451 391.779 342.014C392.318 341.572 393.018 341.352 393.877 341.352C394.463 341.352 394.984 341.465 395.441 341.691C395.902 341.918 396.258 342.23 396.508 342.629C396.762 343.027 396.889 343.463 396.889 343.936H395.758C395.758 343.42 395.594 343.016 395.266 342.723C394.938 342.426 394.475 342.277 393.877 342.277C393.322 342.277 392.889 342.4 392.576 342.646C392.268 342.889 392.113 343.227 392.113 343.66C392.113 344.008 392.26 344.303 392.553 344.545C392.85 344.783 393.352 345.002 394.059 345.201C394.77 345.4 395.324 345.621 395.723 345.863C396.125 346.102 396.422 346.381 396.613 346.701C396.809 347.021 396.906 347.398 396.906 347.832C396.906 348.523 396.637 349.078 396.098 349.496C395.559 349.91 394.838 350.117 393.936 350.117C393.35 350.117 392.803 350.006 392.295 349.783C391.787 349.557 391.395 349.248 391.117 348.857C390.844 348.467 390.707 348.023 390.707 347.527H391.838C391.838 348.043 392.027 348.451 392.406 348.752C392.789 349.049 393.299 349.197 393.936 349.197C394.529 349.197 394.984 349.076 395.301 348.834C395.617 348.592 395.775 348.262 395.775 347.844C395.775 347.426 395.629 347.104 395.336 346.877C395.043 346.646 394.512 346.42 393.742 346.197ZM404.248 342.395H401.506V350H400.387V342.395H397.65V341.469H404.248V342.395ZM410.336 346.057H406.639V349.08H410.934V350H405.514V341.469H410.875V342.395H406.639V345.137H410.336V346.057ZM413.787 341.469L416.576 348.43L419.365 341.469H420.824V350H419.699V346.678L419.805 343.092L417.004 350H416.143L413.348 343.109L413.459 346.678V350H412.334V341.469H413.787ZM430.609 346.057H426.912V349.08H431.207V350H425.787V341.469H431.148V342.395H426.912V345.137H430.609V346.057ZM435.432 348.506L437.869 341.469H439.1L435.936 350H434.939L431.781 341.469H433.006L435.432 348.506ZM444.514 347.773H440.939L440.137 350H438.977L442.234 341.469H443.219L446.482 350H445.328L444.514 347.773ZM441.279 346.848H444.18L442.727 342.857L441.279 346.848ZM448.762 349.08H452.805V350H447.631V341.469H448.762V349.08ZM459.777 341.469V347.27C459.773 348.074 459.52 348.732 459.016 349.244C458.516 349.756 457.836 350.043 456.977 350.105L456.678 350.117C455.744 350.117 455 349.865 454.445 349.361C453.891 348.857 453.609 348.164 453.602 347.281V341.469H454.715V347.246C454.715 347.863 454.885 348.344 455.225 348.688C455.564 349.027 456.049 349.197 456.678 349.197C457.314 349.197 457.801 349.027 458.137 348.688C458.477 348.348 458.646 347.869 458.646 347.252V341.469H459.777ZM466.135 347.773H462.561L461.758 350H460.598L463.855 341.469H464.84L468.104 350H466.949L466.135 347.773ZM462.9 346.848H465.801L464.348 342.857L462.9 346.848ZM474.385 342.395H471.643V350H470.523V342.395H467.787V341.469H474.385V342.395ZM480.473 346.057H476.775V349.08H481.07V350H475.65V341.469H481.012V342.395H476.775V345.137H480.473V346.057ZM484.984 346.197C484.02 345.92 483.316 345.58 482.875 345.178C482.438 344.771 482.219 344.271 482.219 343.678C482.219 343.006 482.486 342.451 483.021 342.014C483.561 341.572 484.26 341.352 485.119 341.352C485.705 341.352 486.227 341.465 486.684 341.691C487.145 341.918 487.5 342.23 487.75 342.629C488.004 343.027 488.131 343.463 488.131 343.936H487C487 343.42 486.836 343.016 486.508 342.723C486.18 342.426 485.717 342.277 485.119 342.277C484.564 342.277 484.131 342.4 483.818 342.646C483.51 342.889 483.355 343.227 483.355 343.66C483.355 344.008 483.502 344.303 483.795 344.545C484.092 344.783 484.594 345.002 485.301 345.201C486.012 345.4 486.566 345.621 486.965 345.863C487.367 346.102 487.664 346.381 487.855 346.701C488.051 347.021 488.148 347.398 488.148 347.832C488.148 348.523 487.879 349.078 487.34 349.496C486.801 349.91 486.08 350.117 485.178 350.117C484.592 350.117 484.045 350.006 483.537 349.783C483.029 349.557 482.637 349.248 482.359 348.857C482.086 348.467 481.949 348.023 481.949 347.527H483.08C483.08 348.043 483.27 348.451 483.648 348.752C484.031 349.049 484.541 349.197 485.178 349.197C485.771 349.197 486.227 349.076 486.543 348.834C486.859 348.592 487.018 348.262 487.018 347.844C487.018 347.426 486.871 347.104 486.578 346.877C486.285 346.646 485.754 346.42 484.984 346.197ZM493.779 350H492.654V341.469H493.779V350ZM502.398 350H501.268L496.973 343.426V350H495.842V341.469H496.973L501.279 348.072V341.469H502.398V350ZM505.521 346.66V350H504.396V341.469H507.543C508.477 341.469 509.207 341.707 509.734 342.184C510.266 342.66 510.531 343.291 510.531 344.076C510.531 344.904 510.271 345.543 509.752 345.992C509.236 346.438 508.496 346.66 507.531 346.66H505.521ZM505.521 345.74H507.543C508.145 345.74 508.605 345.6 508.926 345.318C509.246 345.033 509.406 344.623 509.406 344.088C509.406 343.58 509.246 343.174 508.926 342.869C508.605 342.564 508.166 342.406 507.607 342.395H505.521V345.74ZM517.973 341.469V347.27C517.969 348.074 517.715 348.732 517.211 349.244C516.711 349.756 516.031 350.043 515.172 350.105L514.873 350.117C513.939 350.117 513.195 349.865 512.641 349.361C512.086 348.857 511.805 348.164 511.797 347.281V341.469H512.91V347.246C512.91 347.863 513.08 348.344 513.42 348.688C513.76 349.027 514.244 349.197 514.873 349.197C515.51 349.197 515.996 349.027 516.332 348.688C516.672 348.348 516.842 347.869 516.842 347.252V341.469H517.973ZM525.643 342.395H522.9V350H521.781V342.395H519.045V341.469H525.643V342.395ZM529.328 346.197C528.363 345.92 527.66 345.58 527.219 345.178C526.781 344.771 526.562 344.271 526.562 343.678C526.562 343.006 526.83 342.451 527.365 342.014C527.904 341.572 528.604 341.352 529.463 341.352C530.049 341.352 530.57 341.465 531.027 341.691C531.488 341.918 531.844 342.23 532.094 342.629C532.348 343.027 532.475 343.463 532.475 343.936H531.344C531.344 343.42 531.18 343.016 530.852 342.723C530.523 342.426 530.061 342.277 529.463 342.277C528.908 342.277 528.475 342.4 528.162 342.646C527.854 342.889 527.699 343.227 527.699 343.66C527.699 344.008 527.846 344.303 528.139 344.545C528.436 344.783 528.938 345.002 529.645 345.201C530.355 345.4 530.91 345.621 531.309 345.863C531.711 346.102 532.008 346.381 532.199 346.701C532.395 347.021 532.492 347.398 532.492 347.832C532.492 348.523 532.223 349.078 531.684 349.496C531.145 349.91 530.424 350.117 529.521 350.117C528.936 350.117 528.389 350.006 527.881 349.783C527.373 349.557 526.98 349.248 526.703 348.857C526.43 348.467 526.293 348.023 526.293 347.527H527.424C527.424 348.043 527.613 348.451 527.992 348.752C528.375 349.049 528.885 349.197 529.521 349.197C530.115 349.197 530.57 349.076 530.887 348.834C531.203 348.592 531.361 348.262 531.361 347.844C531.361 347.426 531.215 347.104 530.922 346.877C530.629 346.646 530.098 346.42 529.328 346.197ZM533.793 349.432C533.793 349.244 533.848 349.088 533.957 348.963C534.07 348.838 534.238 348.775 534.461 348.775C534.684 348.775 534.852 348.838 534.965 348.963C535.082 349.088 535.141 349.244 535.141 349.432C535.141 349.611 535.082 349.762 534.965 349.883C534.852 350.004 534.684 350.064 534.461 350.064C534.238 350.064 534.07 350.004 533.957 349.883C533.848 349.762 533.793 349.611 533.793 349.432ZM380.119 360.549H378.115V364H376.984V355.469H379.809C380.77 355.469 381.508 355.688 382.023 356.125C382.543 356.562 382.803 357.199 382.803 358.035C382.803 358.566 382.658 359.029 382.369 359.424C382.084 359.818 381.686 360.113 381.174 360.309L383.178 363.93V364H381.971L380.119 360.549ZM378.115 359.629H379.844C380.402 359.629 380.846 359.484 381.174 359.195C381.506 358.906 381.672 358.52 381.672 358.035C381.672 357.508 381.514 357.104 381.197 356.822C380.885 356.541 380.432 356.398 379.838 356.395H378.115V359.629ZM389.207 360.057H385.51V363.08H389.805V364H384.385V355.469H389.746V356.395H385.51V359.137H389.207V360.057ZM393.719 360.197C392.754 359.92 392.051 359.58 391.609 359.178C391.172 358.771 390.953 358.271 390.953 357.678C390.953 357.006 391.221 356.451 391.756 356.014C392.295 355.572 392.994 355.352 393.854 355.352C394.439 355.352 394.961 355.465 395.418 355.691C395.879 355.918 396.234 356.23 396.484 356.629C396.738 357.027 396.865 357.463 396.865 357.936H395.734C395.734 357.42 395.57 357.016 395.242 356.723C394.914 356.426 394.451 356.277 393.854 356.277C393.299 356.277 392.865 356.4 392.553 356.646C392.244 356.889 392.09 357.227 392.09 357.66C392.09 358.008 392.236 358.303 392.529 358.545C392.826 358.783 393.328 359.002 394.035 359.201C394.746 359.4 395.301 359.621 395.699 359.863C396.102 360.102 396.398 360.381 396.59 360.701C396.785 361.021 396.883 361.398 396.883 361.832C396.883 362.523 396.613 363.078 396.074 363.496C395.535 363.91 394.814 364.117 393.912 364.117C393.326 364.117 392.779 364.006 392.271 363.783C391.764 363.557 391.371 363.248 391.094 362.857C390.82 362.467 390.684 362.023 390.684 361.527H391.814C391.814 362.043 392.004 362.451 392.383 362.752C392.766 363.049 393.275 363.197 393.912 363.197C394.506 363.197 394.961 363.076 395.277 362.834C395.594 362.592 395.752 362.262 395.752 361.844C395.752 361.426 395.605 361.104 395.312 360.877C395.02 360.646 394.488 360.42 393.719 360.197ZM404.336 355.469V361.27C404.332 362.074 404.078 362.732 403.574 363.244C403.074 363.756 402.395 364.043 401.535 364.105L401.236 364.117C400.303 364.117 399.559 363.865 399.004 363.361C398.449 362.857 398.168 362.164 398.16 361.281V355.469H399.273V361.246C399.273 361.863 399.443 362.344 399.783 362.688C400.123 363.027 400.607 363.197 401.236 363.197C401.873 363.197 402.359 363.027 402.695 362.688C403.035 362.348 403.205 361.869 403.205 361.252V355.469H404.336ZM407.242 363.08H411.285V364H406.111V355.469H407.242V363.08ZM416.846 356.395H414.104V364H412.984V356.395H410.248V355.469H416.846V356.395ZM425.564 361.773H421.99L421.188 364H420.027L423.285 355.469H424.27L427.533 364H426.379L425.564 361.773ZM422.33 360.848H425.23L423.777 356.857L422.33 360.848ZM431.811 360.549H429.807V364H428.676V355.469H431.5C432.461 355.469 433.199 355.688 433.715 356.125C434.234 356.562 434.494 357.199 434.494 358.035C434.494 358.566 434.35 359.029 434.061 359.424C433.775 359.818 433.377 360.113 432.865 360.309L434.869 363.93V364H433.662L431.811 360.549ZM429.807 359.629H431.535C432.094 359.629 432.537 359.484 432.865 359.195C433.197 358.906 433.363 358.52 433.363 358.035C433.363 357.508 433.205 357.104 432.889 356.822C432.576 356.541 432.123 356.398 431.529 356.395H429.807V359.629ZM440.898 360.057H437.201V363.08H441.496V364H436.076V355.469H441.438V356.395H437.201V359.137H440.898V360.057ZM448.387 360.197C447.422 359.92 446.719 359.58 446.277 359.178C445.84 358.771 445.621 358.271 445.621 357.678C445.621 357.006 445.889 356.451 446.424 356.014C446.963 355.572 447.662 355.352 448.521 355.352C449.107 355.352 449.629 355.465 450.086 355.691C450.547 355.918 450.902 356.23 451.152 356.629C451.406 357.027 451.533 357.463 451.533 357.936H450.402C450.402 357.42 450.238 357.016 449.91 356.723C449.582 356.426 449.119 356.277 448.521 356.277C447.967 356.277 447.533 356.4 447.221 356.646C446.912 356.889 446.758 357.227 446.758 357.66C446.758 358.008 446.904 358.303 447.197 358.545C447.494 358.783 447.996 359.002 448.703 359.201C449.414 359.4 449.969 359.621 450.367 359.863C450.77 360.102 451.066 360.381 451.258 360.701C451.453 361.021 451.551 361.398 451.551 361.832C451.551 362.523 451.281 363.078 450.742 363.496C450.203 363.91 449.482 364.117 448.58 364.117C447.994 364.117 447.447 364.006 446.939 363.783C446.432 363.557 446.039 363.248 445.762 362.857C445.488 362.467 445.352 362.023 445.352 361.527H446.482C446.482 362.043 446.672 362.451 447.051 362.752C447.434 363.049 447.943 363.197 448.58 363.197C449.174 363.197 449.629 363.076 449.945 362.834C450.262 362.592 450.42 362.262 450.42 361.844C450.42 361.426 450.273 361.104 449.98 360.877C449.688 360.646 449.156 360.42 448.387 360.197ZM459.555 364H458.424V360.057H454.123V364H452.998V355.469H454.123V359.137H458.424V355.469H459.555V364ZM468.115 360.01C468.115 360.846 467.975 361.576 467.693 362.201C467.412 362.822 467.014 363.297 466.498 363.625C465.982 363.953 465.381 364.117 464.693 364.117C464.021 364.117 463.426 363.953 462.906 363.625C462.387 363.293 461.982 362.822 461.693 362.213C461.408 361.6 461.262 360.891 461.254 360.086V359.471C461.254 358.65 461.396 357.926 461.682 357.297C461.967 356.668 462.369 356.188 462.889 355.855C463.412 355.52 464.01 355.352 464.682 355.352C465.365 355.352 465.967 355.518 466.486 355.85C467.01 356.178 467.412 356.656 467.693 357.285C467.975 357.91 468.115 358.639 468.115 359.471V360.01ZM466.996 359.459C466.996 358.447 466.793 357.672 466.387 357.133C465.98 356.59 465.412 356.318 464.682 356.318C463.971 356.318 463.41 356.59 463 357.133C462.594 357.672 462.385 358.422 462.373 359.383V360.01C462.373 360.99 462.578 361.762 462.988 362.324C463.402 362.883 463.971 363.162 464.693 363.162C465.42 363.162 465.982 362.898 466.381 362.371C466.779 361.84 466.984 361.08 466.996 360.092V359.459ZM471.643 361.311L471.807 362.436L472.047 361.422L473.734 355.469H474.684L476.33 361.422L476.564 362.453L476.746 361.305L478.07 355.469H479.201L477.133 364H476.107L474.35 357.783L474.215 357.133L474.08 357.783L472.258 364H471.232L469.17 355.469H470.295L471.643 361.311ZM487.012 364H485.881L481.586 357.426V364H480.455V355.469H481.586L485.893 362.072V355.469H487.012V364ZM488.863 363.432C488.863 363.244 488.918 363.088 489.027 362.963C489.141 362.838 489.309 362.775 489.531 362.775C489.754 362.775 489.922 362.838 490.035 362.963C490.152 363.088 490.211 363.244 490.211 363.432C490.211 363.611 490.152 363.762 490.035 363.883C489.922 364.004 489.754 364.064 489.531 364.064C489.309 364.064 489.141 364.004 489.027 363.883C488.918 363.762 488.863 363.611 488.863 363.432ZM383.547 378H382.416L378.121 371.426V378H376.99V369.469H378.121L382.428 376.072V369.469H383.547V378ZM390.367 374.057H386.67V377.08H390.965V378H385.545V369.469H390.906V370.395H386.67V373.137H390.367V374.057ZM394.205 375.311L394.369 376.436L394.609 375.422L396.297 369.469H397.246L398.893 375.422L399.127 376.453L399.309 375.305L400.633 369.469H401.764L399.695 378H398.67L396.912 371.783L396.777 371.133L396.643 371.783L394.82 378H393.795L391.732 369.469H392.857L394.205 375.311ZM405.994 378V369.469H408.402C409.145 369.469 409.801 369.633 410.371 369.961C410.941 370.289 411.381 370.756 411.689 371.361C412.002 371.967 412.16 372.662 412.164 373.447V373.992C412.164 374.797 412.008 375.502 411.695 376.107C411.387 376.713 410.943 377.178 410.365 377.502C409.791 377.826 409.121 377.992 408.355 378H405.994ZM407.119 370.395V377.08H408.303C409.17 377.08 409.844 376.811 410.324 376.271C410.809 375.732 411.051 374.965 411.051 373.969V373.471C411.051 372.502 410.822 371.75 410.365 371.215C409.912 370.676 409.268 370.402 408.432 370.395H407.119ZM418.451 375.773H414.877L414.074 378H412.914L416.172 369.469H417.156L420.42 378H419.266L418.451 375.773ZM415.217 374.848H418.117L416.664 370.857L415.217 374.848ZM426.701 370.395H423.959V378H422.84V370.395H420.104V369.469H426.701V370.395ZM432.209 375.773H428.635L427.832 378H426.672L429.93 369.469H430.914L434.178 378H433.023L432.209 375.773ZM428.975 374.848H431.875L430.422 370.857L428.975 374.848ZM439.51 378H438.385V369.469H439.51V378ZM444.086 374.197C443.121 373.92 442.418 373.58 441.977 373.178C441.539 372.771 441.32 372.271 441.32 371.678C441.32 371.006 441.588 370.451 442.123 370.014C442.662 369.572 443.361 369.352 444.221 369.352C444.807 369.352 445.328 369.465 445.785 369.691C446.246 369.918 446.602 370.23 446.852 370.629C447.105 371.027 447.232 371.463 447.232 371.936H446.102C446.102 371.42 445.938 371.016 445.609 370.723C445.281 370.426 444.818 370.277 444.221 370.277C443.666 370.277 443.232 370.4 442.92 370.646C442.611 370.889 442.457 371.227 442.457 371.66C442.457 372.008 442.604 372.303 442.896 372.545C443.193 372.783 443.695 373.002 444.402 373.201C445.113 373.4 445.668 373.621 446.066 373.863C446.469 374.102 446.766 374.381 446.957 374.701C447.152 375.021 447.25 375.398 447.25 375.832C447.25 376.523 446.98 377.078 446.441 377.496C445.902 377.91 445.182 378.117 444.279 378.117C443.693 378.117 443.146 378.006 442.639 377.783C442.131 377.557 441.738 377.248 441.461 376.857C441.188 376.467 441.051 376.023 441.051 375.527H442.182C442.182 376.043 442.371 376.451 442.75 376.752C443.133 377.049 443.643 377.197 444.279 377.197C444.873 377.197 445.328 377.076 445.645 376.834C445.961 376.592 446.119 376.262 446.119 375.844C446.119 375.426 445.973 375.104 445.68 374.877C445.387 374.646 444.855 374.42 444.086 374.197ZM456.385 375.773H452.811L452.008 378H450.848L454.105 369.469H455.09L458.354 378H457.199L456.385 375.773ZM453.15 374.848H456.051L454.598 370.857L453.15 374.848ZM461.811 376.506L464.248 369.469H465.479L462.314 378H461.318L458.16 369.469H459.385L461.811 376.506ZM470.893 375.773H467.318L466.516 378H465.355L468.613 369.469H469.598L472.861 378H471.707L470.893 375.773ZM467.658 374.848H470.559L469.105 370.857L467.658 374.848ZM475.217 378H474.092V369.469H475.217V378ZM478.41 377.08H482.453V378H477.279V369.469H478.41V377.08ZM488.564 375.773H484.99L484.188 378H483.027L486.285 369.469H487.27L490.533 378H489.379L488.564 375.773ZM485.33 374.848H488.23L486.777 370.857L485.33 374.848ZM491.682 378V369.469H494.471C495.396 369.469 496.092 369.66 496.557 370.043C497.025 370.426 497.26 370.992 497.26 371.742C497.26 372.141 497.146 372.494 496.92 372.803C496.693 373.107 496.385 373.344 495.994 373.512C496.455 373.641 496.818 373.887 497.084 374.25C497.354 374.609 497.488 375.039 497.488 375.539C497.488 376.305 497.24 376.906 496.744 377.344C496.248 377.781 495.547 378 494.641 378H491.682ZM492.807 374.01V377.08H494.664C495.188 377.08 495.6 376.945 495.9 376.676C496.205 376.402 496.357 376.027 496.357 375.551C496.357 374.523 495.799 374.01 494.682 374.01H492.807ZM492.807 373.107H494.506C494.998 373.107 495.391 372.984 495.684 372.738C495.98 372.492 496.129 372.158 496.129 371.736C496.129 371.268 495.992 370.928 495.719 370.717C495.445 370.502 495.029 370.395 494.471 370.395H492.807V373.107ZM500.289 377.08H504.332V378H499.158V369.469H500.289V377.08ZM510.438 374.057H506.74V377.08H511.035V378H505.615V369.469H510.977V370.395H506.74V373.137H510.438V374.057Z" fill="black"/>
</svg>
